<?xml version="1.0" encoding="UTF-8"?>
<svg id="Google_Logo" data-name="Google Logo" xmlns="http://www.w3.org/2000/svg" viewBox="0 0 300 150">
  <defs>
    <style>
      .cls-1 {
        fill: #f9bc15;
      }

      .cls-2 {
        fill: #ea4435;
      }

      .cls-3 {
        fill: #547dbf;
      }

      .cls-4 {
        fill: #33a852;
      }

      .cls-5 {
        fill: #5f6368;
      }
    </style>
  </defs>
  <g>
    <path id="path2998" class="cls-3" d="m54.92,68.14h-16.63v4.93h11.79c-.58,6.92-6.34,9.87-11.77,9.87-6.95,0-13.02-5.47-13.02-13.14s5.78-13.22,13.03-13.22c5.59,0,8.89,3.57,8.89,3.57l3.46-3.58s-4.44-4.94-12.52-4.94c-10.3,0-18.27,8.69-18.27,18.08s7.49,18.17,18.53,18.17c9.7,0,16.81-6.65,16.81-16.48,0-2.07-.3-3.27-.3-3.27h0Z"/>
    <path id="path3000" class="cls-2" d="m68.55,64.57c-6.82,0-11.71,5.34-11.71,11.56s4.74,11.75,11.79,11.75c6.38,0,11.61-4.88,11.61-11.61,0-7.72-6.08-11.69-11.69-11.69h0Zm.07,4.58c3.36,0,6.53,2.71,6.53,7.08s-3.17,7.07-6.55,7.07c-3.72,0-6.65-2.98-6.65-7.1s2.9-7.05,6.67-7.05h0Z"/>
    <path id="path3005" class="cls-1" d="m94.02,64.57c-6.82,0-11.71,5.34-11.71,11.56s4.74,11.75,11.79,11.75c6.38,0,11.61-4.88,11.61-11.61,0-7.72-6.08-11.69-11.69-11.69h0Zm.07,4.58c3.36,0,6.53,2.71,6.53,7.08s-3.17,7.07-6.55,7.07c-3.72,0-6.65-2.98-6.65-7.1s2.9-7.05,6.67-7.05h0Z"/>
    <path id="path3007" class="cls-3" d="m119.01,64.58c-6.26,0-11.19,5.49-11.19,11.64,0,7.01,5.71,11.66,11.08,11.66,3.32,0,5.09-1.32,6.39-2.83v2.3c0,4.02-2.44,6.43-6.13,6.43s-5.34-2.65-5.96-4.15l-4.48,1.87c1.59,3.36,4.79,6.86,10.48,6.86,6.23,0,10.97-3.92,10.97-12.15v-20.94h-4.88v1.97c-1.5-1.62-3.56-2.67-6.28-2.67h0Zm.45,4.57c3.07,0,6.22,2.62,6.22,7.1s-3.15,7.06-6.29,7.06c-3.34,0-6.45-2.71-6.45-7.02s3.23-7.14,6.51-7.14h0Z"/>
    <path id="path3011" class="cls-2" d="m151.9,64.55c-5.91,0-10.87,4.7-10.87,11.64,0,7.34,5.53,11.69,11.44,11.69,4.93,0,7.96-2.7,9.76-5.11l-4.03-2.68c-1.05,1.62-2.79,3.21-5.71,3.21-3.28,0-4.78-1.79-5.71-3.53l15.62-6.48-.81-1.9c-1.51-3.72-5.03-6.83-9.69-6.83h0Zm.2,4.48c2.13,0,3.66,1.13,4.31,2.49l-10.43,4.36c-.45-3.38,2.75-6.85,6.12-6.85h0Z"/>
    <path id="path3015" class="cls-4" d="m133.58,87.19h5.13v-34.34h-5.13v34.34Z"/>
  </g>
  <path class="cls-5" d="m188.35,87.84c-8.74.15-15.94-6.81-16.09-15.55,0-.21,0-.43,0-.64-.2-8.74,6.71-15.98,15.45-16.19.21,0,.43,0,.64,0,4.37-.14,8.56,1.73,11.39,5.07l-2.77,2.69c-2.07-2.61-5.27-4.07-8.6-3.94-3.19-.07-6.28,1.16-8.54,3.42-2.35,2.37-3.61,5.61-3.48,8.95-.14,3.34,1.12,6.58,3.48,8.95,2.26,2.26,5.35,3.49,8.54,3.42,3.72.04,7.25-1.61,9.6-4.49l2.77,2.77c-1.45,1.73-3.27,3.12-5.32,4.05-2.21,1.02-4.63,1.53-7.07,1.5Z"/>
  <path class="cls-5" d="m208.16,87.15h-3.97v-31.01h3.97v31.01Z"/>
  <path class="cls-5" d="m214.65,68.48c4.34-4.31,11.33-4.31,15.67,0,2.06,2.17,3.16,5.07,3.07,8.06.09,2.99-1.02,5.89-3.07,8.06-4.34,4.31-11.33,4.31-15.67,0-2.06-2.17-3.16-5.07-3.07-8.06-.09-2.99,1.02-5.89,3.07-8.06Zm2.96,13.63c2.54,2.69,6.79,2.81,9.47.26.09-.08.18-.17.26-.26,1.4-1.51,2.14-3.51,2.05-5.57.09-2.06-.65-4.06-2.05-5.57-2.54-2.69-6.79-2.81-9.47-.26-.09.08-.18.17-.26.26-1.4,1.51-2.14,3.51-2.05,5.57-.08,2.05.67,4.05,2.07,5.55l-.02.02Z"/>
  <path class="cls-5" d="m255.42,87.15h-3.84v-2.94h-.12c-.68,1.12-1.65,2.03-2.8,2.65-1.2.69-2.55,1.06-3.94,1.06-2.27.16-4.49-.74-6.03-2.42-1.45-1.84-2.19-4.15-2.05-6.49v-13.06h3.97v12.33c0,3.96,1.75,5.93,5.24,5.93,1.58.05,3.08-.67,4.03-1.92,1.03-1.31,1.58-2.93,1.56-4.59v-11.75h3.97v21.2Z"/>
  <path class="cls-5" d="m268.92,87.84c-2.73,0-5.32-1.18-7.1-3.25-1.99-2.2-3.06-5.08-2.98-8.05-.08-2.97.99-5.85,2.98-8.05,1.78-2.07,4.38-3.25,7.1-3.25,1.51-.02,3,.33,4.34,1.04,1.17.59,2.17,1.49,2.88,2.59h.17l-.17-2.94v-9.81h3.97v31.01h-3.84v-2.94h-.17c-.71,1.11-1.71,2-2.88,2.59-1.33.7-2.8,1.05-4.3,1.04Zm.65-3.63c1.82.03,3.56-.73,4.78-2.07,1.35-1.54,2.04-3.55,1.92-5.59.12-2.04-.57-4.05-1.92-5.59-2.41-2.65-6.52-2.84-9.17-.43-.15.14-.3.28-.43.43-1.35,1.53-2.05,3.53-1.92,5.57-.13,2.04.57,4.04,1.92,5.57,1.22,1.37,2.98,2.14,4.82,2.11Z"/>
</svg>